<svg width="64" height="64" viewBox="0 0 64 64" fill="none" xmlns="http://www.w3.org/2000/svg">
  <path d="M8 52 L8 32 C8 26.5 12.5 22 18 22 L30 22 C31.1 22 32 22.9 32 24 L32 48 C32 49.1 31.1 50 30 50 L26 50 C25.4 50 25 49.6 25 49 L25 44 L17 44 C16.4 44 16 43.6 16 43 L16 38 C16 37.4 16.4 37 17 37 L47 37 C47.6 37 48 37.4 48 38 L48 43 C48 43.6 47.6 44 47 44 L39 44 L39 49 C39 50.1 38.1 51 37 51 L18 51 C13.6 51 10 47.4 10 43 L10 40 L8 40 C8 48 8 52 8 52 Z" fill="#38BDF8"/>
  <path d="M19 22 L19 16 C19 13.8 20.8 12 23 12 L41 12 C43.2 12 45 13.8 45 16 L45 20 C46.1 20 47 20.9 47 22 L53 22 C53 20.9 52.1 20 51 20 L51 16 C51 11.6 47.4 8 43 8 L21 8 C16.6 8 13 11.6 13 16 L13 22 L19 22 Z" fill="#A855F7"/>
  <circle cx="18" cy="50" r="4" fill="#F59E0B"/>
  <circle cx="46" cy="50" r="4" fill="#F59E0B"/>
</svg>
